<svg xmlns="http://www.w3.org/2000/svg" viewBox="0 0 600 450" width="600" height="450" role="img" aria-label="Microsoft">
  <defs>
    <linearGradient id="g" x1="0" y1="0" x2="1" y2="1">
      <stop offset="0" stop-color="#2c7e24"/>
      <stop offset="1" stop-color="#12492b"/>
    </linearGradient>
  </defs>
  <rect width="600" height="450" fill="url(#g)"/>
  <circle cx="530" cy="70" r="140" fill="#ffffff" opacity="0.06"/>
  <circle cx="60" cy="410" r="110" fill="#ffffff" opacity="0.05"/>
  <g>
    <path d="M180 190 h240 a70 70 0 0 1 62 104 l-26 48 a44 44 0 0 1-70 8 l-24-26 H188 l-24 26 a44 44 0 0 1-70-8 l-26-48 A70 70 0 0 1 130 190 Z" transform="translate(20,0)" fill="#f4f7fb"/>
    <circle cx="222" cy="252" r="15" fill="#1e2530"/>
    <circle cx="378" cy="252" r="15" fill="#1e2530"/>
    <rect x="286" y="244" width="28" height="10" rx="5" fill="#1e2530"/>
    <circle cx="264" cy="300" r="20" fill="#ffffff" opacity="0.4"/>
    <circle cx="336" cy="300" r="20" fill="#ffffff" opacity="0.4"/>
  </g>
  <text x="300" y="426" text-anchor="middle" font-family="Segoe UI, Arial, sans-serif"
        font-size="26" font-weight="600" fill="#ffffff" opacity="0.9">Microsoft</text>
</svg>
